<?xml version="1.0" encoding="UTF-8" standalone="no"?>
<svg
   xmlns:dc="http://purl.org/dc/elements/1.1/"
   xmlns:cc="http://creativecommons.org/ns#"
   xmlns:rdf="http://www.w3.org/1999/02/22-rdf-syntax-ns#"
   xmlns:svg="http://www.w3.org/2000/svg"
   xmlns="http://www.w3.org/2000/svg"
   xmlns:sodipodi="http://sodipodi.sourceforge.net/DTD/sodipodi-0.dtd"
   xmlns:inkscape="http://www.inkscape.org/namespaces/inkscape"
   inkscape:version="1.0beta1 (32d4812, 2019-09-19)"
   version="1.1"
   id="svg253"
   xml:space="preserve"
   width="1056"
   height="816"
   viewBox="0 0 1056 816"
   sodipodi:docname="plot.svg">
  <metadata
   id="metadata259">
    <rdf:RDF>
      <cc:Work
   rdf:about="">
        <dc:format>image/svg+xml</dc:format>









        <dc:type
   rdf:resource="http://purl.org/dc/dcmitype/StillImage" />









        <dc:title></dc:title>









      </cc:Work>









    </rdf:RDF>









  </metadata>









  <defs
   id="defs257">
    <clipPath
   id="clipPath271"
   clipPathUnits="userSpaceOnUse">
      <path
   inkscape:connector-curvature="0"
   id="path269"
   d="M 0,612 V 0 h 792 v 612 z" />









    </clipPath>









  </defs>









  <sodipodi:namedview
   inkscape:current-layer="g261"
   inkscape:window-maximized="0"
   inkscape:window-y="23"
   inkscape:window-x="0"
   inkscape:cy="359.60393"
   inkscape:cx="645.31437"
   inkscape:zoom="0.55092273"
   inkscape:document-units="mm"
   showgrid="false"
   id="namedview255"
   inkscape:window-height="927"
   inkscape:window-width="1680"
   inkscape:pageshadow="2"
   inkscape:pageopacity="0"
   guidetolerance="10"
   gridtolerance="10"
   objecttolerance="10"
   borderopacity="1"
   inkscape:document-rotation="0"
   bordercolor="#666666"
   pagecolor="#ffffff" />









  <g
   transform="matrix(1.3333333,0,0,-1.3333333,0,816)"
   inkscape:label="plot"
   inkscape:groupmode="layer"
   id="g261">
    <g
   id="g263" />









    <g
   mask="none"
   id="g265">
      <g
   clip-path="url(#clipPath271)"
   id="g267">
        <g
   id="g273">
          <path
   inkscape:connector-curvature="0"
   id="path275"
   style="fill:none;stroke:#000000;stroke-width:1;stroke-linecap:round;stroke-linejoin:miter;stroke-miterlimit:10;stroke-dasharray:none;stroke-opacity:1"
   d="m 601,301 c 0,-110.46 -89.54,-200 -200,-200 -110.46,0 -200,89.54 -200,200 0,110.46 89.54,200 200,200 110.46,0 200,-89.54 200,-200 z" />









          <path
   inkscape:connector-curvature="0"
   id="path277"
   style="fill:none;stroke:#000000;stroke-width:1;stroke-linecap:round;stroke-linejoin:miter;stroke-miterlimit:10;stroke-dasharray:none;stroke-opacity:1"
   d="m 602,300 c 0,-110.46 -89.54,-200 -200,-200 -110.46,0 -200,89.54 -200,200 0,110.46 89.54,200 200,200 110.46,0 200,-89.54 200,-200 z" />









          <path
   inkscape:connector-curvature="0"
   id="path279"
   style="fill:none;stroke:#000000;stroke-width:1;stroke-linecap:round;stroke-linejoin:miter;stroke-miterlimit:10;stroke-dasharray:none;stroke-opacity:1"
   d="M 603,299 C 603,188.54 513.46,99 403,99 292.54,99 203,188.54 203,299 c 0,110.46 89.54,200 200,200 110.46,0 200,-89.54 200,-200 z" />









          <path
   inkscape:connector-curvature="0"
   id="path281"
   style="fill:none;stroke:#000000;stroke-width:1;stroke-linecap:round;stroke-linejoin:miter;stroke-miterlimit:10;stroke-dasharray:none;stroke-opacity:1"
   d="M 604,298 C 604,187.54 514.46,98 404,98 293.54,98 204,187.54 204,298 c 0,110.46 89.54,200 200,200 110.46,0 200,-89.54 200,-200 z" />









          <path
   inkscape:connector-curvature="0"
   id="path283"
   style="fill:none;stroke:#000000;stroke-width:1;stroke-linecap:round;stroke-linejoin:miter;stroke-miterlimit:10;stroke-dasharray:none;stroke-opacity:1"
   d="M 605,297 C 605,186.54 515.46,97 405,97 294.54,97 205,186.54 205,297 c 0,110.46 89.54,200 200,200 110.46,0 200,-89.54 200,-200 z" />









          <path
   inkscape:connector-curvature="0"
   id="path285"
   style="fill:none;stroke:#000000;stroke-width:1;stroke-linecap:round;stroke-linejoin:miter;stroke-miterlimit:10;stroke-dasharray:none;stroke-opacity:1"
   d="M 606,296 C 606,185.54 516.46,96 406,96 295.54,96 206,185.54 206,296 c 0,110.46 89.54,200 200,200 110.46,0 200,-89.54 200,-200 z" />









          <path
   inkscape:connector-curvature="0"
   id="path287"
   style="fill:none;stroke:#000000;stroke-width:1;stroke-linecap:round;stroke-linejoin:miter;stroke-miterlimit:10;stroke-dasharray:none;stroke-opacity:1"
   d="M 607,295 C 607,184.54 517.46,95 407,95 296.54,95 207,184.54 207,295 c 0,110.46 89.54,200 200,200 110.46,0 200,-89.54 200,-200 z" />









          <path
   inkscape:connector-curvature="0"
   id="path289"
   style="fill:none;stroke:#000000;stroke-width:1;stroke-linecap:round;stroke-linejoin:miter;stroke-miterlimit:10;stroke-dasharray:none;stroke-opacity:1"
   d="M 608,294 C 608,183.54 518.46,94 408,94 297.54,94 208,183.54 208,294 c 0,110.46 89.54,200 200,200 110.46,0 200,-89.54 200,-200 z" />









          <path
   inkscape:connector-curvature="0"
   id="path291"
   style="fill:none;stroke:#000000;stroke-width:1;stroke-linecap:round;stroke-linejoin:miter;stroke-miterlimit:10;stroke-dasharray:none;stroke-opacity:1"
   d="M 609,293 C 609,182.54 519.46,93 409,93 298.54,93 209,182.54 209,293 c 0,110.46 89.54,200 200,200 110.46,0 200,-89.54 200,-200 z" />









          <path
   inkscape:connector-curvature="0"
   id="path293"
   style="fill:none;stroke:#000000;stroke-width:1;stroke-linecap:round;stroke-linejoin:miter;stroke-miterlimit:10;stroke-dasharray:none;stroke-opacity:1"
   d="M 610,292 C 610,181.54 520.46,92 410,92 299.54,92 210,181.54 210,292 c 0,110.46 89.54,200 200,200 110.46,0 200,-89.54 200,-200 z" />









          <path
   inkscape:connector-curvature="0"
   id="path295"
   style="fill:none;stroke:#000000;stroke-width:1;stroke-linecap:round;stroke-linejoin:miter;stroke-miterlimit:10;stroke-dasharray:none;stroke-opacity:1"
   d="m 591,311 c 0,-110.46 -89.54,-200 -200,-200 -110.46,0 -200,89.54 -200,200 0,110.46 89.54,200 200,200 110.46,0 200,-89.54 200,-200 z" />









          <path
   inkscape:connector-curvature="0"
   id="path297"
   style="fill:none;stroke:#000000;stroke-width:1;stroke-linecap:round;stroke-linejoin:miter;stroke-miterlimit:10;stroke-dasharray:none;stroke-opacity:1"
   d="m 592,310 c 0,-110.46 -89.54,-200 -200,-200 -110.46,0 -200,89.54 -200,200 0,110.46 89.54,200 200,200 110.46,0 200,-89.54 200,-200 z" />









          <path
   inkscape:connector-curvature="0"
   id="path299"
   style="fill:none;stroke:#000000;stroke-width:1;stroke-linecap:round;stroke-linejoin:miter;stroke-miterlimit:10;stroke-dasharray:none;stroke-opacity:1"
   d="m 593,309 c 0,-110.46 -89.54,-200 -200,-200 -110.46,0 -200,89.54 -200,200 0,110.46 89.54,200 200,200 110.46,0 200,-89.54 200,-200 z" />









          <path
   inkscape:connector-curvature="0"
   id="path301"
   style="fill:none;stroke:#000000;stroke-width:1;stroke-linecap:round;stroke-linejoin:miter;stroke-miterlimit:10;stroke-dasharray:none;stroke-opacity:1"
   d="m 594,308 c 0,-110.46 -89.54,-200 -200,-200 -110.46,0 -200,89.54 -200,200 0,110.46 89.54,200 200,200 110.46,0 200,-89.54 200,-200 z" />









          <path
   inkscape:connector-curvature="0"
   id="path303"
   style="fill:none;stroke:#000000;stroke-width:1;stroke-linecap:round;stroke-linejoin:miter;stroke-miterlimit:10;stroke-dasharray:none;stroke-opacity:1"
   d="m 595,307 c 0,-110.46 -89.54,-200 -200,-200 -110.46,0 -200,89.54 -200,200 0,110.46 89.54,200 200,200 110.46,0 200,-89.54 200,-200 z" />









          <path
   inkscape:connector-curvature="0"
   id="path305"
   style="fill:none;stroke:#000000;stroke-width:1;stroke-linecap:round;stroke-linejoin:miter;stroke-miterlimit:10;stroke-dasharray:none;stroke-opacity:1"
   d="m 596,306 c 0,-110.46 -89.54,-200 -200,-200 -110.46,0 -200,89.54 -200,200 0,110.46 89.54,200 200,200 110.46,0 200,-89.54 200,-200 z" />









          <path
   inkscape:connector-curvature="0"
   id="path307"
   style="fill:none;stroke:#000000;stroke-width:1;stroke-linecap:round;stroke-linejoin:miter;stroke-miterlimit:10;stroke-dasharray:none;stroke-opacity:1"
   d="m 597,305 c 0,-110.46 -89.54,-200 -200,-200 -110.46,0 -200,89.54 -200,200 0,110.46 89.54,200 200,200 110.46,0 200,-89.54 200,-200 z" />









          <path
   inkscape:connector-curvature="0"
   id="path309"
   style="fill:none;stroke:#000000;stroke-width:1;stroke-linecap:round;stroke-linejoin:miter;stroke-miterlimit:10;stroke-dasharray:none;stroke-opacity:1"
   d="m 598,304 c 0,-110.46 -89.54,-200 -200,-200 -110.46,0 -200,89.54 -200,200 0,110.46 89.54,200 200,200 110.46,0 200,-89.54 200,-200 z" />









          <path
   inkscape:connector-curvature="0"
   id="path311"
   style="fill:none;stroke:#000000;stroke-width:1;stroke-linecap:round;stroke-linejoin:miter;stroke-miterlimit:10;stroke-dasharray:none;stroke-opacity:1"
   d="m 599,303 c 0,-110.46 -89.54,-200 -200,-200 -110.46,0 -200,89.54 -200,200 0,110.46 89.54,200 200,200 110.46,0 200,-89.54 200,-200 z" />









          <path
   inkscape:connector-curvature="0"
   id="path313"
   style="fill:none;stroke:#000000;stroke-width:1;stroke-linecap:round;stroke-linejoin:miter;stroke-miterlimit:10;stroke-dasharray:none;stroke-opacity:1"
   d="m 600,302 c 0,-110.46 -89.54,-200 -200,-200 -110.46,0 -200,89.54 -200,200 0,110.46 89.54,200 200,200 110.46,0 200,-89.54 200,-200 z" />









          <path
   inkscape:connector-curvature="0"
   id="path315"
   style="fill:none;stroke:#000000;stroke-width:1.9;stroke-linecap:round;stroke-linejoin:miter;stroke-miterlimit:10;stroke-dasharray:none;stroke-opacity:1"
   d="m 339,363 57,114 57,-114 z" />









          <path
   inkscape:connector-curvature="0"
   id="path317"
   style="fill:none;stroke:#000000;stroke-width:1.9;stroke-linecap:round;stroke-linejoin:miter;stroke-miterlimit:10;stroke-dasharray:none;stroke-opacity:1"
   d="m 374.19,382.22 106.36,70.22 -7.64,-127.22 z" />









          <path
   inkscape:connector-curvature="0"
   id="path319"
   style="fill:none;stroke:#000000;stroke-width:1.9;stroke-linecap:round;stroke-linejoin:miter;stroke-miterlimit:10;stroke-dasharray:none;stroke-opacity:1"
   d="M 413.57,381.96 540.8,389.6 470.57,283.24 Z" />









          <path
   inkscape:connector-curvature="0"
   id="path321"
   style="fill:none;stroke:#000000;stroke-width:1.9;stroke-linecap:round;stroke-linejoin:miter;stroke-miterlimit:10;stroke-dasharray:none;stroke-opacity:1"
   d="m 447.3,363 114,-57 -114,-57 z" />









          <path
   inkscape:connector-curvature="0"
   id="path323"
   style="fill:none;stroke:#000000;stroke-width:1.9;stroke-linecap:round;stroke-linejoin:miter;stroke-miterlimit:10;stroke-dasharray:none;stroke-opacity:1"
   d="M 467.28,330.66 537.51,224.3 410.28,231.94 Z" />









          <path
   inkscape:connector-curvature="0"
   id="path325"
   style="fill:none;stroke:#000000;stroke-width:1.9;stroke-linecap:round;stroke-linejoin:miter;stroke-miterlimit:10;stroke-dasharray:none;stroke-opacity:1"
   d="m 469.11,293.36 7.64,-127.22 -106.36,70.22 z" />









          <path
   inkscape:connector-curvature="0"
   id="path327"
   style="fill:none;stroke:#000000;stroke-width:1.9;stroke-linecap:round;stroke-linejoin:miter;stroke-miterlimit:10;stroke-dasharray:none;stroke-opacity:1"
   d="m 453,260.4 -57,-114 -57,114 z" />









          <path
   inkscape:connector-curvature="0"
   id="path329"
   style="fill:none;stroke:#000000;stroke-width:1.9;stroke-linecap:round;stroke-linejoin:miter;stroke-miterlimit:10;stroke-dasharray:none;stroke-opacity:1"
   d="m 423.51,239.65 -106.36,-70.22 7.64,127.22 z" />









          <path
   inkscape:connector-curvature="0"
   id="path331"
   style="fill:none;stroke:#000000;stroke-width:1.9;stroke-linecap:round;stroke-linejoin:miter;stroke-miterlimit:10;stroke-dasharray:none;stroke-opacity:1"
   d="M 388.3,235.74 261.07,228.1 331.3,334.46 Z" />









          <path
   inkscape:connector-curvature="0"
   id="path333"
   style="fill:none;stroke:#000000;stroke-width:1.9;stroke-linecap:round;stroke-linejoin:miter;stroke-miterlimit:10;stroke-dasharray:none;stroke-opacity:1"
   d="m 356.1,249 -114,57 114,57 z" />









          <path
   inkscape:connector-curvature="0"
   id="path335"
   style="fill:none;stroke:#000000;stroke-width:1.9;stroke-linecap:round;stroke-linejoin:miter;stroke-miterlimit:10;stroke-dasharray:none;stroke-opacity:1"
   d="M 334.59,275.64 264.36,382 391.59,374.36 Z" />









          <path
   inkscape:connector-curvature="0"
   id="path337"
   style="fill:none;stroke:#000000;stroke-width:1.9;stroke-linecap:round;stroke-linejoin:miter;stroke-miterlimit:10;stroke-dasharray:none;stroke-opacity:1"
   d="m 328.59,308.76 -7.64,127.23 106.36,-70.23 z" />









          <path
   inkscape:connector-curvature="0"
   id="path339"
   style="fill:none;stroke:#000000;stroke-width:1.9;stroke-linecap:round;stroke-linejoin:miter;stroke-miterlimit:10;stroke-dasharray:none;stroke-opacity:1"
   d="m 339,340.2 57,114 57,-114 z" />









          <path
   inkscape:connector-curvature="0"
   id="path341"
   style="fill:none;stroke:#000000;stroke-width:1.9;stroke-linecap:round;stroke-linejoin:miter;stroke-miterlimit:10;stroke-dasharray:none;stroke-opacity:1"
   d="M 362.79,362.47 469.15,432.7 461.51,305.47 Z" />









          <path
   inkscape:connector-curvature="0"
   id="path343"
   style="fill:none;stroke:#000000;stroke-width:1.9;stroke-linecap:round;stroke-linejoin:miter;stroke-miterlimit:10;stroke-dasharray:none;stroke-opacity:1"
   d="M 393.83,370.56 521.05,378.2 450.83,271.84 Z" />









          <path
   inkscape:connector-curvature="0"
   id="path345"
   style="fill:none;stroke:#000000;stroke-width:1.9;stroke-linecap:round;stroke-linejoin:miter;stroke-miterlimit:10;stroke-dasharray:none;stroke-opacity:1"
   d="m 424.5,363 114,-57 -114,-57 z" />









          <path
   inkscape:connector-curvature="0"
   id="path347"
   style="fill:none;stroke:#000000;stroke-width:1.9;stroke-linecap:round;stroke-linejoin:miter;stroke-miterlimit:10;stroke-dasharray:none;stroke-opacity:1"
   d="M 447.54,342.06 517.76,235.7 390.54,243.34 Z" />









          <path
   inkscape:connector-curvature="0"
   id="path349"
   style="fill:none;stroke:#000000;stroke-width:1.9;stroke-linecap:round;stroke-linejoin:miter;stroke-miterlimit:10;stroke-dasharray:none;stroke-opacity:1"
   d="m 457.71,313.11 7.64,-127.23 -106.36,70.23 z" />









          <path
   inkscape:connector-curvature="0"
   id="path351"
   style="fill:none;stroke:#000000;stroke-width:1.9;stroke-linecap:round;stroke-linejoin:miter;stroke-miterlimit:10;stroke-dasharray:none;stroke-opacity:1"
   d="m 453,283.2 -57,-114 -57,114 z" />









          <path
   inkscape:connector-curvature="0"
   id="path353"
   style="fill:none;stroke:#000000;stroke-width:1.9;stroke-linecap:round;stroke-linejoin:miter;stroke-miterlimit:10;stroke-dasharray:none;stroke-opacity:1"
   d="M 434.91,259.4 328.55,189.17 336.19,316.4 Z" />









        </g>









      </g>









    </g>









  </g>









<WCB
   layer="0"
   node="0"
   lastpath="0"
   lastpathnc="0"
   lastknownposx="0"
   lastknownposy="0"
   pausedposx="0"
   pausedposy="0"
   randseed="0"
   row="0"
   application="Axidraw" />
</svg>
