<?xml version="1.0" encoding="UTF-8" standalone="no"?>
<svg
   xmlns:dc="http://purl.org/dc/elements/1.1/"
   xmlns:cc="http://creativecommons.org/ns#"
   xmlns:rdf="http://www.w3.org/1999/02/22-rdf-syntax-ns#"
   xmlns:svg="http://www.w3.org/2000/svg"
   xmlns="http://www.w3.org/2000/svg"
   xmlns:sodipodi="http://sodipodi.sourceforge.net/DTD/sodipodi-0.dtd"
   xmlns:inkscape="http://www.inkscape.org/namespaces/inkscape"
   inkscape:version="1.0beta1 (32d4812, 2019-09-19)"
   sodipodi:docname="plot.svg"
   viewBox="0 0 1056 816"
   height="8.5in"
   width="11in"
   xml:space="preserve"
   id="svg62"
   version="1.1">
  <metadata
     id="metadata68">
    <rdf:RDF>
      <cc:Work
         rdf:about="">
        <dc:format>image/svg+xml</dc:format>
        <dc:type
           rdf:resource="http://purl.org/dc/dcmitype/StillImage" />
        <dc:title></dc:title>
      </cc:Work>
    </rdf:RDF>
  </metadata>
  <defs
     id="defs66">
    <clipPath
       id="clipPath80"
       clipPathUnits="userSpaceOnUse">
      <path
         inkscape:connector-curvature="0"
         id="path78"
         d="M 0,612 V 0 h 792 v 612 z" />
    </clipPath>
  </defs>
  <sodipodi:namedview
     inkscape:current-layer="g70"
     inkscape:window-maximized="0"
     inkscape:window-y="23"
     inkscape:window-x="0"
     inkscape:cy="193.25515"
     inkscape:cx="1443.4848"
     inkscape:zoom="0.26328491"
     inkscape:document-units="in"
     units="in"
     showgrid="false"
     id="namedview64"
     inkscape:window-height="907"
     inkscape:window-width="1600"
     inkscape:pageshadow="2"
     inkscape:pageopacity="0"
     guidetolerance="10"
     gridtolerance="10"
     objecttolerance="10"
     borderopacity="1"
     inkscape:document-rotation="0"
     bordercolor="#666666"
     pagecolor="#ffffff" />
  <g
     transform="matrix(1.3333333,0,0,-1.3333333,0,816)"
     inkscape:label="plot"
     inkscape:groupmode="layer"
     id="g70">
    <g
       id="g72" />
    <g
       id="g74">
      <g
         clip-path="url(#clipPath80)"
         id="g76">
        <g
           id="g82">
          <path
             inkscape:connector-curvature="0"
             id="path84"
             style="fill:none;stroke:#000000;stroke-width:1;stroke-linecap:round;stroke-linejoin:miter;stroke-miterlimit:10;stroke-dasharray:none;stroke-opacity:1"
             d="m 596,306 c 0,-110.46 -89.54,-200 -200,-200 -110.46,0 -200,89.54 -200,200 0,110.46 89.54,200 200,200 110.46,0 200,-89.54 200,-200 z" />
          <path
             inkscape:connector-curvature="0"
             id="path86"
             style="fill:none;stroke:#000000;stroke-width:1.9;stroke-linecap:round;stroke-linejoin:miter;stroke-miterlimit:10;stroke-dasharray:none;stroke-opacity:1"
             d="m 339,363 57,114 57,-114 z" />
          <path
             inkscape:connector-curvature="0"
             id="path88"
             style="fill:none;stroke:#000000;stroke-width:1.9;stroke-linecap:round;stroke-linejoin:miter;stroke-miterlimit:10;stroke-dasharray:none;stroke-opacity:1"
             d="M 375.14,383.86 481.5,454.09 473.86,326.86 Z" />
          <path
             inkscape:connector-curvature="0"
             id="path90"
             style="fill:none;stroke:#000000;stroke-width:1.9;stroke-linecap:round;stroke-linejoin:miter;stroke-miterlimit:10;stroke-dasharray:none;stroke-opacity:1"
             d="M 416.86,383.86 544.09,391.5 473.86,285.14 Z" />
          <path
             inkscape:connector-curvature="0"
             id="path92"
             style="fill:none;stroke:#000000;stroke-width:1.9;stroke-linecap:round;stroke-linejoin:miter;stroke-miterlimit:10;stroke-dasharray:none;stroke-opacity:1"
             d="M 453,363 567,306 453,249 Z" />
          <path
             inkscape:connector-curvature="0"
             id="path94"
             style="fill:none;stroke:#000000;stroke-width:1.9;stroke-linecap:round;stroke-linejoin:miter;stroke-miterlimit:10;stroke-dasharray:none;stroke-opacity:1"
             d="M 473.86,326.86 544.09,220.5 416.86,228.14 Z" />
          <path
             inkscape:connector-curvature="0"
             id="path96"
             style="fill:none;stroke:#000000;stroke-width:1.9;stroke-linecap:round;stroke-linejoin:miter;stroke-miterlimit:10;stroke-dasharray:none;stroke-opacity:1"
             d="M 473.86,285.14 481.5,157.91 375.14,228.14 Z" />
          <path
             inkscape:connector-curvature="0"
             id="path98"
             style="fill:none;stroke:#000000;stroke-width:1.9;stroke-linecap:round;stroke-linejoin:miter;stroke-miterlimit:10;stroke-dasharray:none;stroke-opacity:1"
             d="M 453,249 396,135 339,249 Z" />
          <path
             inkscape:connector-curvature="0"
             id="path100"
             style="fill:none;stroke:#000000;stroke-width:1.9;stroke-linecap:round;stroke-linejoin:miter;stroke-miterlimit:10;stroke-dasharray:none;stroke-opacity:1"
             d="M 416.86,228.14 310.5,157.91 318.14,285.14 Z" />
          <path
             inkscape:connector-curvature="0"
             id="path102"
             style="fill:none;stroke:#000000;stroke-width:1.9;stroke-linecap:round;stroke-linejoin:miter;stroke-miterlimit:10;stroke-dasharray:none;stroke-opacity:1"
             d="M 375.14,228.14 247.91,220.5 318.14,326.86 Z" />
          <path
             inkscape:connector-curvature="0"
             id="path104"
             style="fill:none;stroke:#000000;stroke-width:1.9;stroke-linecap:round;stroke-linejoin:miter;stroke-miterlimit:10;stroke-dasharray:none;stroke-opacity:1"
             d="m 339,249 -114,57 114,57 z" />
          <path
             inkscape:connector-curvature="0"
             id="path106"
             style="fill:none;stroke:#000000;stroke-width:1.9;stroke-linecap:round;stroke-linejoin:miter;stroke-miterlimit:10;stroke-dasharray:none;stroke-opacity:1"
             d="M 318.14,285.14 247.91,391.5 375.14,383.86 Z" />
          <path
             inkscape:connector-curvature="0"
             id="path108"
             style="fill:none;stroke:#000000;stroke-width:1.9;stroke-linecap:round;stroke-linejoin:miter;stroke-miterlimit:10;stroke-dasharray:none;stroke-opacity:1"
             d="M 318.14,326.86 310.5,454.09 416.86,383.86 Z" />
          <path
             inkscape:connector-curvature="0"
             id="path110"
             style="fill:none;stroke:#000000;stroke-width:1.9;stroke-linecap:round;stroke-linejoin:miter;stroke-miterlimit:10;stroke-dasharray:none;stroke-opacity:1"
             d="m 339,363 57,114 57,-114 z" />
          <path
             inkscape:connector-curvature="0"
             id="path112"
             style="fill:none;stroke:#000000;stroke-width:1.9;stroke-linecap:round;stroke-linejoin:miter;stroke-miterlimit:10;stroke-dasharray:none;stroke-opacity:1"
             d="M 375.14,383.86 481.5,454.09 473.86,326.86 Z" />
          <path
             inkscape:connector-curvature="0"
             id="path114"
             style="fill:none;stroke:#000000;stroke-width:1.9;stroke-linecap:round;stroke-linejoin:miter;stroke-miterlimit:10;stroke-dasharray:none;stroke-opacity:1"
             d="M 416.86,383.86 544.09,391.5 473.86,285.14 Z" />
          <path
             inkscape:connector-curvature="0"
             id="path116"
             style="fill:none;stroke:#000000;stroke-width:1.9;stroke-linecap:round;stroke-linejoin:miter;stroke-miterlimit:10;stroke-dasharray:none;stroke-opacity:1"
             d="M 453,363 567,306 453,249 Z" />
          <path
             inkscape:connector-curvature="0"
             id="path118"
             style="fill:none;stroke:#000000;stroke-width:1.9;stroke-linecap:round;stroke-linejoin:miter;stroke-miterlimit:10;stroke-dasharray:none;stroke-opacity:1"
             d="M 473.86,326.86 544.09,220.5 416.86,228.14 Z" />
          <path
             inkscape:connector-curvature="0"
             id="path120"
             style="fill:none;stroke:#000000;stroke-width:1.9;stroke-linecap:round;stroke-linejoin:miter;stroke-miterlimit:10;stroke-dasharray:none;stroke-opacity:1"
             d="M 473.86,285.14 481.5,157.91 375.14,228.14 Z" />
          <path
             inkscape:connector-curvature="0"
             id="path122"
             style="fill:none;stroke:#000000;stroke-width:1.9;stroke-linecap:round;stroke-linejoin:miter;stroke-miterlimit:10;stroke-dasharray:none;stroke-opacity:1"
             d="M 453,249 396,135 339,249 Z" />
          <path
             inkscape:connector-curvature="0"
             id="path124"
             style="fill:none;stroke:#000000;stroke-width:1.9;stroke-linecap:round;stroke-linejoin:miter;stroke-miterlimit:10;stroke-dasharray:none;stroke-opacity:1"
             d="M 416.86,228.14 310.5,157.91 318.14,285.14 Z" />
          <path
             inkscape:connector-curvature="0"
             id="path126"
             style="fill:none;stroke:#000000;stroke-width:1;stroke-linecap:round;stroke-linejoin:miter;stroke-miterlimit:10;stroke-dasharray:none;stroke-opacity:1"
             d="m 446,306 c 0,-27.61 -22.39,-50 -50,-50 -27.61,0 -50,22.39 -50,50 0,27.61 22.39,50 50,50 27.61,0 50,-22.39 50,-50 z" />
          <path
             inkscape:connector-curvature="0"
             id="path128"
             style="fill:none;stroke:#000000;stroke-width:1;stroke-linecap:round;stroke-linejoin:miter;stroke-miterlimit:10;stroke-dasharray:none;stroke-opacity:1"
             d="m 446.5,306 c 0,-27.89 -22.61,-50.5 -50.5,-50.5 -27.89,0 -50.5,22.61 -50.5,50.5 0,27.89 22.61,50.5 50.5,50.5 27.89,0 50.5,-22.61 50.5,-50.5 z" />
          <path
             inkscape:connector-curvature="0"
             id="path130"
             style="fill:none;stroke:#000000;stroke-width:1;stroke-linecap:round;stroke-linejoin:miter;stroke-miterlimit:10;stroke-dasharray:none;stroke-opacity:1"
             d="m 447,306 c 0,-28.17 -22.83,-51 -51,-51 -28.17,0 -51,22.83 -51,51 0,28.17 22.83,51 51,51 28.17,0 51,-22.83 51,-51 z" />
          <path
             inkscape:connector-curvature="0"
             id="path132"
             style="fill:none;stroke:#000000;stroke-width:1;stroke-linecap:round;stroke-linejoin:miter;stroke-miterlimit:10;stroke-dasharray:none;stroke-opacity:1"
             d="m 447.5,306 c 0,-28.44 -23.06,-51.5 -51.5,-51.5 -28.44,0 -51.5,23.06 -51.5,51.5 0,28.44 23.06,51.5 51.5,51.5 28.44,0 51.5,-23.06 51.5,-51.5 z" />
          <path
             inkscape:connector-curvature="0"
             id="path134"
             style="fill:none;stroke:#000000;stroke-width:1;stroke-linecap:round;stroke-linejoin:miter;stroke-miterlimit:10;stroke-dasharray:none;stroke-opacity:1"
             d="m 448,306 c 0,-28.72 -23.28,-52 -52,-52 -28.72,0 -52,23.28 -52,52 0,28.72 23.28,52 52,52 28.72,0 52,-23.28 52,-52 z" />
        </g>
      </g>
    </g>
  </g>
</svg>
