<?xml version="1.0" standalone="no"?>
<!DOCTYPE svg PUBLIC "-//W3C//DTD SVG 20010904//EN"
 "http://www.w3.org/TR/2001/REC-SVG-20010904/DTD/svg10.dtd">
<svg version="1.0" xmlns="http://www.w3.org/2000/svg"
 width="100.000000pt" height="100.000000pt" viewBox="0 0 100.000000 100.000000"
 preserveAspectRatio="xMidYMid meet">
<metadata>
Created by potrace 1.15, written by Peter Selinger 2001-2017
</metadata>
<g transform="translate(0.000000,100.000000) scale(0.100000,-0.100000)"
fill="#000000" stroke="none">
<path d="M490 848 c-6 -29 -14 -119 -17 -200 -3 -82 -9 -148 -13 -148 -4 0
-10 58 -13 130 -8 149 -23 230 -42 230 -22 0 -36 -94 -42 -289 -5 -155 -8
-181 -19 -166 -7 10 -16 38 -20 63 -4 24 -15 53 -25 63 -11 11 -19 31 -19 45
0 34 -18 27 -42 -16 -21 -40 -24 -138 -6 -191 6 -19 23 -52 38 -74 15 -22 30
-50 34 -62 9 -28 62 -73 87 -73 14 0 19 -7 19 -30 0 -16 5 -30 11 -30 6 0 9
17 7 41 -3 38 -6 43 -38 53 -26 8 -40 21 -54 51 -10 22 -26 51 -34 65 -9 14
-17 32 -17 41 -1 10 -9 24 -18 34 -18 18 -23 75 -7 75 6 0 14 10 19 23 7 19 9
16 16 -23 9 -53 22 -80 47 -98 10 -7 18 -20 18 -28 0 -8 5 -14 10 -14 6 0 10
50 10 130 l0 130 25 0 c22 0 24 -4 27 -57 3 -54 5 -58 28 -58 24 0 25 2 28 78
3 74 4 77 27 77 23 0 24 -4 27 -67 3 -65 4 -68 28 -68 22 0 25 5 28 43 3 37 6
42 27 42 22 0 24 -5 27 -52 3 -49 5 -53 28 -53 20 0 26 6 28 28 3 21 9 27 28
27 24 0 24 -1 24 -97 -1 -136 -11 -181 -49 -215 -25 -22 -31 -36 -31 -68 0
-22 5 -40 10 -40 6 0 10 13 10 29 0 20 8 34 25 45 53 35 57 60 52 280 -5 205
-18 296 -42 296 -16 0 -34 -76 -42 -177 -3 -40 -9 -73 -13 -73 -4 0 -10 53
-13 119 -16 291 -66 298 -83 11 -4 -60 -10 -110 -14 -110 -4 0 -10 62 -13 138
-7 157 -22 242 -42 242 -8 0 -18 -21 -25 -52z"/>
</g>
</svg>
